# xmcd
#
# Track frame offsets:
#	187
#	19200
#	38325
#	58682
#	72312
#	90615
#	110212
#	127240
#	147930
#	166450
#
# Disc length: 2509 seconds
#
# Revision: 1
# Processed by: cddbd v1.5PL3 Copyright (c) Steve Scherf et al.
# Submitted via: CDex 1.50Beta5
#
DISCID=9009cb0a
DTITLE=長山洋子 - オンディーヌ
DYEAR=1900
DGENRE=Pop
TTITLE0=真夜中のオンディーヌ
TTITLE1=ドミノ
TTITLE2=愛を待てないAngels
TTITLE3=ビッグ・ラブ
TTITLE4=マザーズボーイWow Wow
TTITLE5=ラ・イスラ・ボニータ
TTITLE6=ハイウェイ物語
TTITLE7=愛に抱かれた夜
TTITLE8=悲しき恋人たち(Twilight-Mix)
TTITLE9=アリス
EXTD=
EXTT0=
EXTT1=
EXTT2=
EXTT3=
EXTT4=
EXTT5=
EXTT6=
EXTT7=
EXTT8=
EXTT9=
PLAYORDER=
